<?xml version="1.0" encoding="UTF-8"?>
<svg id="Laag_2" data-name="Laag 2" xmlns="http://www.w3.org/2000/svg" viewBox="0 0 142.45 82.87">
  <defs>
    <style>
      .cls-1 {
        fill: #450000;
      }

      .cls-1, .cls-2 {
        stroke-width: 0px;
      }

      .cls-2 {
        fill: #ffc53e;
      }
    </style>
  </defs>
  <g id="Laag_1-2" data-name="Laag 1">
    <path class="cls-1" d="M142.34,74.83c-.02-.18-.05-.75-.05-2.16v-16.66c0-2.83-.47-5.05-1.49-6.99-2.07-3.92-6.89-6.45-12.28-6.45-.57,0-1.16.02-1.76.07v-1.39s.02-.9.02-.9c.08-2.92.09-3.13.18-3.74.28-1.84-.34-3.7-1.67-5-1.1-1.08-2.56-1.67-4.07-1.67-.32,0-.64.03-.95.08l-11.2,1.86s-.07.02-.11.03l2.77-2.83c1.19-1.22,1.79-2.9,1.63-4.6-.16-1.7-1.06-3.24-2.45-4.22l-7.32-5.12c-1.01-.71-2.17-1.05-3.33-1.05-1.51,0-3.02.59-4.14,1.74l-1.64,1.67-1.17-1.39c-1.14-1.35-2.78-2.07-4.45-2.07-1.06,0-2.13.29-3.08.89l-5.52,3.46c-3.19-2.95-7.47-4.67-12.46-4.67-3.65,0-6.99.96-9.83,2.62.1-3.51.22-6.82.29-7.52.18-1.8-.49-3.61-1.81-4.85-1.09-1.02-2.52-1.59-3.99-1.59-.31,0-.62.03-.94.08l-7.87,1.32c-.35-.39-.75-.74-1.21-1.03-2.86-1.8-6.24-2.75-9.78-2.75-9.29,0-15.39,6.05-15.74,15.5-.37.23-.71.51-1.02.82-1.09,1.1-1.7,2.58-1.69,4.13l.05,9.36-9.31,1.79c-3.03.58-5.06,3.42-4.66,6.45.04.47.14,2.31.25,4.42l.09,1.64v.06l.16,22.28c0,2.04-.3,4.09-.46,4.61-.97,2.79.31,5.83,2.97,7.11,5.68,2.74,11.95,4.32,17.2,4.32s10.35-2.06,13.95-5.66c.01-.01.02-.02.03-.03,3.47,3.73,8.46,6,14.2,6,4.76,0,9-1.59,12.25-4.29,3.86,2.77,8.54,4.34,13.16,4.34,4.94,0,9.22-1.79,12.18-4.71,3.17,2.93,7.46,4.66,12.39,4.66,2.89,0,5.75-.6,8.45-1.74.83.45,1.77.69,2.74.69h11.37c.77,0,1.53-.15,2.22-.44.7.29,1.45.44,2.22.44h10.98c1.79,0,3.48-.82,4.58-2.23,1.04-1.34,1.45-3.06,1.12-4.71Z"/>
    <g>
      <path class="cls-2" d="M38.6,29.86h-5.34l-.17,10.28c0,.9.06,2.13.11,2.87.11,1.85.17,2.02.17,2.19h-10.9c.11-1.57.22-3.2.28-4.89l-.06-10.34-2.64-.06-.06-9.5h2.64l.06-4.05c0-6.8,3.54-10.56,9.95-10.56,2.42,0,4.72.62,6.69,1.86l-1.69,7.98c-.96-.51-1.97-.79-2.64-.79-1.24,0-1.85.79-1.8,2.3v3.26h5.51l-.11,9.44Z"/>
      <path class="cls-2" d="M52.46,8.18c-.16,1.41-.42,10.56-.47,14.74l.1,22.27h-10.51l.05-.21c.05-.21.1-1.41.16-3.24l.21-6.9v-.31l.05-17.88v-.37l-.1-3.5-.1-2.61v-.21l10.61-1.78Z"/>
      <path class="cls-2" d="M64.43,35.84c.52,2.14,2.77,3.56,5.65,3.56,2.04,0,4.29-.58,6.48-1.62l2.25,5.8c-2.72,1.67-6.8,2.72-10.56,2.72-8.31,0-13.75-5.23-13.75-13.23s5.54-13.54,13.28-13.54,12.6,5.39,12.6,13.65l-.05,2.67h-15.89ZM68.35,27.87c2.04.36,2.63,3.27,2.78,2.34.29-1.81-.94-3.38-2.9-3.7-2.32-.37-4.26.88-4.41,3.42,0,0,1.01-2.63,4.54-2.07Z"/>
      <path class="cls-2" d="M80.28,40.6l7.06-7.32-6.9-8.16,8.42-5.28,5.28,6.27,6.12-6.22,7.32,5.12-7.32,7.48,7.16,8.63-8.52,4.86-5.49-6.33-5.59,6.38-7.53-5.44Z"/>
      <path class="cls-2" d="M16.32,50.97c2.64-1.1,4.34-1.49,6.32-1.49,6.87,0,11.54,5.17,11.54,12.81,0,4.29-1.32,7.91-3.85,10.44s-6.1,3.96-9.84,3.96c-4.4,0-9.78-1.37-14.68-3.74.44-1.26.77-4.12.77-6.54l-.16-20.78v-.22c-.22-4.12-.33-7.77-.38-8.1l10.28-1.98v15.63ZM16.48,63.87c-.03,2.1,1.09-3.74,3.96-3.66.01,0-.01,0,0,0,3.68-.25,4.4,5.82,4.4,2.68,0-2.91-1.59-4.78-4.12-4.78-2.75,0-4.12,1.81-4.23,5.5v.26Z"/>
      <path class="cls-2" d="M62.45,63.99c0,7.53-5.54,13.02-13.07,13.02s-13.49-5.75-13.49-13.54,5.75-13.17,13.54-13.17,13.02,5.7,13.02,13.7ZM44.76,64.83c.69,2.78,3.06,4.4,5.57,3.77s3.99-3.31,3.34-5.93c-.68-2.73-3.2-4.48-5.6-3.88-2.56.64-4,3.25-3.31,6.03Z"/>
      <path class="cls-2" d="M81.24,59.13c-1.62-1.36-3.82-2.3-5.38-2.3-.94,0-1.78.68-1.78,1.51,0,.73.78,1.2,2.67,1.62,1.78.42,2.82.78,3.87,1.26,2.51,1.15,4.08,3.82,4.08,6.8,0,5.17-4.55,9.04-10.61,9.04-3.92,0-8-1.57-11.08-4.29l4.08-5.7c2.3,1.99,4.34,2.93,6.43,2.93.99,0,1.62-.47,1.62-1.15,0-.78-.73-1.26-2.93-1.83-1.46-.37-2.4-.68-3.08-.99-2.46-1.15-4.03-3.82-4.03-6.85,0-2.61,1.2-5.18,3.24-6.85,1.67-1.36,4.08-2.04,7.06-2.04,3.66,0,6.53.99,9.72,3.24l-3.87,5.59Z"/>
      <path class="cls-2" d="M104.87,60.54c-.94-.99-2.56-1.62-4.13-1.62-2.61,0-4.81,2.25-4.81,4.91s1.93,4.71,4.29,4.71c1.62,0,3.4-.68,4.97-1.83l3.35,6.9c-3.03,2.25-6.38,3.4-9.88,3.4-7.32,0-12.34-5.18-12.34-12.7s5.7-13.75,13.23-13.75c2.82,0,5.96.89,8.68,2.51l-3.35,7.47Z"/>
      <path class="cls-2" d="M121.21,35.75c-.16,1.1-.16,3.04-.27,6.89l.05,8.57c2.25-.82,5.11-1.37,7.52-1.37,3.13,0,6.09,1.37,7.14,3.35.55,1.04.82,2.36.82,4.28v15.21c0,1.81.06,2.86.16,3.3h-10.98c.17-.71.33-3.41.38-5.55l.11-9.06c0-.77-.06-.99-.22-1.26-.33-.72-1.32-1.21-2.2-1.21-.99,0-2.03.39-2.8,1.04l-.11,11.42c0,1.04.22,3.73.38,4.61h-11.37c.22-.6.49-4.12.49-6.64v-25.86c0-1.37-.16-5.24-.33-5.85l11.2-1.87Z"/>
    </g>
  </g>
</svg>